<mxfile host="65bd71144e">
    <diagram id="2p0BBhQzX4XR7-g2VHgU" name="Page-1">
        <mxGraphModel dx="1650" dy="830" grid="1" gridSize="10" guides="1" tooltips="1" connect="1" arrows="1" fold="1" page="1" pageScale="1" pageWidth="850" pageHeight="1100" math="0" shadow="0">
            <root>
                <mxCell id="0"/>
                <mxCell id="1" parent="0"/>
                <mxCell id="tsbuC6tRU9iG-f3frAhI-6" style="edgeStyle=orthogonalEdgeStyle;rounded=0;orthogonalLoop=1;jettySize=auto;html=1;" edge="1" parent="1" source="5" target="9yJnRCmHwgctBSLFEnlX-7">
                    <mxGeometry relative="1" as="geometry">
                        <mxPoint x="160" y="500" as="targetPoint"/>
                    </mxGeometry>
                </mxCell>
                <mxCell id="5" value="User" style="shape=umlActor;verticalLabelPosition=bottom;verticalAlign=top;html=1;outlineConnect=0;" parent="1" vertex="1">
                    <mxGeometry x="70" y="480" width="30" height="60" as="geometry"/>
                </mxCell>
                <mxCell id="9yJnRCmHwgctBSLFEnlX-7" value="Functionality" style="swimlane;" parent="1" vertex="1">
                    <mxGeometry x="160" y="460" width="510" height="130" as="geometry">
                        <mxRectangle x="170" y="460" width="110" height="23" as="alternateBounds"/>
                    </mxGeometry>
                </mxCell>
                <mxCell id="9yJnRCmHwgctBSLFEnlX-8" value="Authentication" style="text;html=1;align=center;verticalAlign=middle;resizable=0;points=[];autosize=1;strokeColor=none;" parent="9yJnRCmHwgctBSLFEnlX-7" vertex="1">
                    <mxGeometry x="40" y="40" width="90" height="20" as="geometry"/>
                </mxCell>
                <mxCell id="9yJnRCmHwgctBSLFEnlX-10" value="Availability" style="text;html=1;align=center;verticalAlign=middle;resizable=0;points=[];autosize=1;strokeColor=none;" parent="9yJnRCmHwgctBSLFEnlX-7" vertex="1">
                    <mxGeometry x="40" y="80" width="70" height="20" as="geometry"/>
                </mxCell>
                <mxCell id="9yJnRCmHwgctBSLFEnlX-22" value="Payment" style="text;html=1;align=center;verticalAlign=middle;resizable=0;points=[];autosize=1;strokeColor=none;" parent="9yJnRCmHwgctBSLFEnlX-7" vertex="1">
                    <mxGeometry x="160" y="40" width="60" height="20" as="geometry"/>
                </mxCell>
                <mxCell id="9yJnRCmHwgctBSLFEnlX-29" value="Vehicle Type" style="text;html=1;align=center;verticalAlign=middle;resizable=0;points=[];autosize=1;strokeColor=none;" parent="9yJnRCmHwgctBSLFEnlX-7" vertex="1">
                    <mxGeometry x="260" y="40" width="80" height="20" as="geometry"/>
                </mxCell>
                <mxCell id="9yJnRCmHwgctBSLFEnlX-25" value="Cancelation" style="text;html=1;align=center;verticalAlign=middle;resizable=0;points=[];autosize=1;strokeColor=none;" parent="9yJnRCmHwgctBSLFEnlX-7" vertex="1">
                    <mxGeometry x="150" y="80" width="80" height="20" as="geometry"/>
                </mxCell>
                <mxCell id="9yJnRCmHwgctBSLFEnlX-32" value="Current Location" style="text;html=1;align=center;verticalAlign=middle;resizable=0;points=[];autosize=1;strokeColor=none;" parent="9yJnRCmHwgctBSLFEnlX-7" vertex="1">
                    <mxGeometry x="260" y="80" width="100" height="20" as="geometry"/>
                </mxCell>
                <mxCell id="tsbuC6tRU9iG-f3frAhI-5" style="edgeStyle=orthogonalEdgeStyle;rounded=0;orthogonalLoop=1;jettySize=auto;html=1;" edge="1" parent="1" source="9yJnRCmHwgctBSLFEnlX-11" target="9yJnRCmHwgctBSLFEnlX-12">
                    <mxGeometry relative="1" as="geometry">
                        <mxPoint x="150" y="700" as="targetPoint"/>
                    </mxGeometry>
                </mxCell>
                <mxCell id="9yJnRCmHwgctBSLFEnlX-11" value="System" style="shape=umlActor;verticalLabelPosition=bottom;verticalAlign=top;html=1;outlineConnect=0;" parent="1" vertex="1">
                    <mxGeometry x="70" y="670" width="30" height="60" as="geometry"/>
                </mxCell>
                <mxCell id="9yJnRCmHwgctBSLFEnlX-12" value="Functionality" style="swimlane;" parent="1" vertex="1">
                    <mxGeometry x="160" y="625" width="510" height="150" as="geometry">
                        <mxRectangle x="150" y="640" width="110" height="23" as="alternateBounds"/>
                    </mxGeometry>
                </mxCell>
                <mxCell id="9yJnRCmHwgctBSLFEnlX-13" value="Navigation" style="text;html=1;align=center;verticalAlign=middle;resizable=0;points=[];autosize=1;strokeColor=none;" parent="9yJnRCmHwgctBSLFEnlX-12" vertex="1">
                    <mxGeometry x="60" y="40" width="70" height="20" as="geometry"/>
                </mxCell>
                <mxCell id="9yJnRCmHwgctBSLFEnlX-19" value="Availability" style="text;html=1;align=center;verticalAlign=middle;resizable=0;points=[];autosize=1;strokeColor=none;" parent="9yJnRCmHwgctBSLFEnlX-12" vertex="1">
                    <mxGeometry x="180" y="100" width="70" height="20" as="geometry"/>
                </mxCell>
                <mxCell id="9yJnRCmHwgctBSLFEnlX-17" value="Car Type" style="text;html=1;align=center;verticalAlign=middle;resizable=0;points=[];autosize=1;strokeColor=none;" parent="9yJnRCmHwgctBSLFEnlX-12" vertex="1">
                    <mxGeometry x="180" y="40" width="60" height="20" as="geometry"/>
                </mxCell>
                <mxCell id="9yJnRCmHwgctBSLFEnlX-18" value="Refule/Range" style="text;html=1;align=center;verticalAlign=middle;resizable=0;points=[];autosize=1;strokeColor=none;" parent="9yJnRCmHwgctBSLFEnlX-12" vertex="1">
                    <mxGeometry x="175" y="70" width="90" height="20" as="geometry"/>
                </mxCell>
                <mxCell id="9yJnRCmHwgctBSLFEnlX-28" value="Security Deposit" style="text;html=1;align=center;verticalAlign=middle;resizable=0;points=[];autosize=1;strokeColor=none;" parent="9yJnRCmHwgctBSLFEnlX-12" vertex="1">
                    <mxGeometry x="310" y="40" width="100" height="20" as="geometry"/>
                </mxCell>
                <mxCell id="9yJnRCmHwgctBSLFEnlX-16" value="Safety" style="text;html=1;align=center;verticalAlign=middle;resizable=0;points=[];autosize=1;strokeColor=none;" parent="9yJnRCmHwgctBSLFEnlX-12" vertex="1">
                    <mxGeometry x="60" y="100" width="50" height="20" as="geometry"/>
                </mxCell>
                <mxCell id="9yJnRCmHwgctBSLFEnlX-15" value="Acccounts" style="text;html=1;align=center;verticalAlign=middle;resizable=0;points=[];autosize=1;strokeColor=none;" parent="9yJnRCmHwgctBSLFEnlX-12" vertex="1">
                    <mxGeometry x="60" y="70" width="70" height="20" as="geometry"/>
                </mxCell>
                <mxCell id="9yJnRCmHwgctBSLFEnlX-44" value="Auto Dial&lt;br&gt;Emergency&amp;nbsp;" style="text;html=1;align=center;verticalAlign=middle;resizable=0;points=[];autosize=1;strokeColor=none;" parent="9yJnRCmHwgctBSLFEnlX-12" vertex="1">
                    <mxGeometry x="310" y="100" width="80" height="30" as="geometry"/>
                </mxCell>
                <mxCell id="9yJnRCmHwgctBSLFEnlX-31" value="Electric" style="text;html=1;align=center;verticalAlign=middle;resizable=0;points=[];autosize=1;strokeColor=none;" parent="9yJnRCmHwgctBSLFEnlX-12" vertex="1">
                    <mxGeometry x="325" y="70" width="50" height="20" as="geometry"/>
                </mxCell>
                <mxCell id="9yJnRCmHwgctBSLFEnlX-34" style="edgeStyle=orthogonalEdgeStyle;rounded=0;orthogonalLoop=1;jettySize=auto;html=1;" parent="1" source="9yJnRCmHwgctBSLFEnlX-29" target="9yJnRCmHwgctBSLFEnlX-38" edge="1">
                    <mxGeometry relative="1" as="geometry">
                        <mxPoint x="750" y="450" as="targetPoint"/>
                        <mxPoint x="590" y="500" as="sourcePoint"/>
                    </mxGeometry>
                </mxCell>
                <mxCell id="9yJnRCmHwgctBSLFEnlX-38" value="Party Bus&lt;br&gt;Trucking&lt;br&gt;Travel&lt;br&gt;Shopping" style="ellipse;whiteSpace=wrap;html=1;" parent="1" vertex="1">
                    <mxGeometry x="700" y="290" width="120" height="130" as="geometry"/>
                </mxCell>
                <mxCell id="9yJnRCmHwgctBSLFEnlX-40" style="edgeStyle=orthogonalEdgeStyle;rounded=0;orthogonalLoop=1;jettySize=auto;html=1;" parent="1" source="9yJnRCmHwgctBSLFEnlX-8" target="9yJnRCmHwgctBSLFEnlX-41" edge="1">
                    <mxGeometry relative="1" as="geometry">
                        <mxPoint x="250" y="370" as="targetPoint"/>
                    </mxGeometry>
                </mxCell>
                <mxCell id="9yJnRCmHwgctBSLFEnlX-41" value="User Account&lt;br&gt;Login" style="ellipse;whiteSpace=wrap;html=1;" parent="1" vertex="1">
                    <mxGeometry x="160" y="280" width="120" height="110" as="geometry"/>
                </mxCell>
                <mxCell id="9yJnRCmHwgctBSLFEnlX-42" style="edgeStyle=orthogonalEdgeStyle;rounded=0;orthogonalLoop=1;jettySize=auto;html=1;" parent="1" source="9yJnRCmHwgctBSLFEnlX-16" target="9yJnRCmHwgctBSLFEnlX-43" edge="1">
                    <mxGeometry relative="1" as="geometry">
                        <mxPoint x="235" y="830" as="targetPoint"/>
                    </mxGeometry>
                </mxCell>
                <mxCell id="9yJnRCmHwgctBSLFEnlX-43" value="Legal" style="ellipse;whiteSpace=wrap;html=1;" parent="1" vertex="1">
                    <mxGeometry x="130" y="840" width="120" height="80" as="geometry"/>
                </mxCell>
            </root>
        </mxGraphModel>
    </diagram>
</mxfile>